<?xml version="1.0" encoding="UTF-8"?><svg id="Camada_1" xmlns="http://www.w3.org/2000/svg" viewBox="0 0 55.47 102.07"><defs><style>.cls-1{fill:#B17DCB;}</style></defs><path class="cls-1" d="m27.74,78.51c3.85,0,7.53-1.22,10.87-2.65,9.91-4.23,16.87-14.29,16.87-25.73s-6.56-20.84-15.99-25.28c-.29-.14-.58-.31-.88-.43-3.18-1.35-7.14-1.88-10.58-2.04-5.51-.25-10.85-1.26-15.07-5.12-1.15-1.05-2.22-2.29-3.1-3.58h35.75c-2.57,3.73-5.9,5.76-9.72,7.18.26.06.53.29.8.37.94.24,1.88.64,2.79,1.03.83.35,1.63.8,2.42,1.23C50.02,18.65,55.47,9.82,55.47,0h-4.44c0,.59-.03,1.17-.07,1.75-.01.11-.03.21-.04.32-.05.48-.1.96-.19,1.46-.38,2.27-1.13,5.19-2.17,6.44H6.91c-1.56-2.49-2.47-6.41-2.47-9.96H0C0,10.87,6.69,20.32,16.28,24.68c.2.09.39.19.59.28,2.53,1.08,5.25,1.64,8.1,1.84,6.38.46,12.17,1.71,17.27,5.79,1.32,1.05,2.53,2.22,3.62,3.5H9.47c2.59-3.73,6.03-6.13,10-7.63-1.21-.31-2.37-.84-3.47-1.31-.75-.32-1.47-.75-2.18-1.12C5.57,30.84,0,39.74,0,49.96s6.06,19.92,14.91,24.56c.36-.17.72-.36,1.09-.52,1.5-.64,3.14-1.1,4.86-1.62-4.56-1.4-8.51-3.92-11.4-7.65h36.64c-4.27,4.98-10.89,8.76-18.36,8.76-3.85,0-7.53,1.22-10.87,2.64C6.96,80.36,0,89.86,0,102.07h4.44c0-4.03.97-8.71,2.65-11.2h41.27c1.71,2.49,2.67,7.15,2.67,11.2h4.44c0-11.25-5.92-20.3-14.6-24.97-.46.23-.92.45-1.39.66-1.71.73-3.36,1.6-4.96,2.03,4.26,1.28,7.99,3.61,10.84,7.34H10.02c4.27-4.98,10.62-8.62,17.71-8.62h0ZM6.7,39.83h41.98c1.17,2.49,1.95,4.98,2.23,8.71H4.55c.26-3.73,1.01-6.22,2.15-8.71h0Zm0,19.92c-1.14-2.49-1.89-4.98-2.15-7.47h46.38c-.25,2.49-1,5.25-2.25,7.65v-.18H6.7Z"/></svg>