<?xml version="1.0" encoding="UTF-8"?><svg id="Camada_1" xmlns="http://www.w3.org/2000/svg" viewBox="0 0 91.22 113.19"><defs><style>.cls-1{fill:#B17DCB;}</style></defs><path class="cls-1" d="m89.8,104.1h-42.51c.04-.14.06-.29.06-.44v-10.38c4.63-.09,8.83-1.59,12.15-4.32h0c3.76-3.08,6.19-7.49,6.99-12.81.09-.53-.06-1.06-.4-1.46-.34-.4-.81-.65-1.34-.68-1.68-.09-3.29,0-4.85.25-3.42.56-6.53,1.93-9.11,4.04-.68.56-1.34,1.18-1.96,1.83l-.03.03c-.06.06-.09.12-.16.16-.5.56-.93,1.12-1.37,1.74v-5.44c4.66-.12,8.86-1.62,12.18-4.32,3.76-3.08,6.19-7.52,6.99-12.81,0-.06.03-.12.03-.19v-.22c-.03-.37-.16-.78-.4-1.06-.34-.4-.81-.65-1.34-.68-.4-.03-.84-.03-1.24-.03-4.85,0-9.23,1.49-12.71,4.32-.25.19-.47.37-.68.59-1.06.93-1.99,2.02-2.8,3.17v-5.16c4.63-.09,8.86-1.59,12.18-4.32,3.76-3.08,6.19-7.52,6.99-12.81.09-.53-.06-1.06-.4-1.46-.34-.4-.81-.65-1.34-.68-5.35-.28-10.19,1.21-13.96,4.29-1.34,1.09-2.52,2.36-3.48,3.76v-5.47c.56,0,1.12-.06,1.68-.09.19-.03.37-.03.53-.06,1.4-.19,2.74-.47,4.01-.9.03,0,.06-.03.09-.03.12-.03.25-.09.37-.12.16-.06.28-.09.44-.16h.03c1.83-.71,3.54-1.68,5.07-2.92,3.76-3.08,6.19-7.52,6.99-12.84,0-.06.03-.12.03-.19,0-.12,0-.25-.03-.37v-.03c0-.06-.03-.12-.03-.19-.06-.25-.19-.5-.34-.68-.34-.4-.84-.65-1.37-.68-.5-.03-.96-.03-1.46-.03-4.79.06-9.11,1.52-12.49,4.32-1.34,1.09-2.52,2.36-3.48,3.76v-5.19c.59-.68,1.15-1.4,1.65-2.11,2.27-3.29,3.48-6.96,3.54-10.75.06-4.85-1.77-9.57-5.28-13.61-.34-.4-.84-.62-1.37-.65-.53,0-1.03.22-1.4.59-3.64,3.95-5.59,8.61-5.69,13.46-.09,4.01,1.15,7.89,3.54,11.41.37.56.81,1.12,1.24,1.65v4.72c-.06-.09-.12-.16-.19-.25-.09-.16-.22-.28-.34-.4-.06-.09-.12-.16-.19-.25-.12-.16-.25-.28-.37-.4-.06-.06-.12-.16-.19-.22-.12-.16-.28-.28-.4-.4l-.19-.19c-.16-.16-.28-.28-.44-.4-.06-.06-.12-.12-.19-.16-.19-.16-.34-.31-.53-.47-.03-.03-.06-.06-.12-.09-.12-.12-.28-.22-.4-.31-3.39-2.61-7.65-3.98-12.37-3.98-.4,0-.78,0-1.18.03-.53.03-1.03.28-1.37.68-.34.4-.47.93-.4,1.46.37,2.33,1.03,4.48,1.99,6.43,1.21,2.52,2.92,4.66,5.04,6.4,3.26,2.64,7.34,4.1,11.81,4.29v5c-.06-.09-.12-.16-.19-.25-.06-.06-.12-.16-.19-.22-.12-.16-.25-.31-.37-.44-.06-.06-.09-.12-.16-.16-.12-.16-.28-.31-.4-.47l-.09-.09c-.56-.59-1.15-1.15-1.77-1.65-3.45-2.83-7.83-4.32-12.71-4.32-.4,0-.84,0-1.24.03-.53.03-1.03.28-1.34.68-.31.4-.47.93-.4,1.46.84,5.28,3.26,9.73,7.02,12.81,3.26,2.64,7.34,4.13,11.84,4.29v4.72c-.06-.09-.12-.16-.19-.25-.03-.06-.09-.12-.12-.16-.12-.16-.28-.34-.4-.5-.03-.06-.09-.09-.12-.16-.16-.16-.28-.34-.44-.5-.03-.03-.06-.06-.06-.09-.56-.59-1.15-1.15-1.77-1.68-2.33-1.9-5.1-3.2-8.11-3.82-1.49-.31-3.01-.47-4.6-.47-.25,0-.47,0-.71.03h-.53c-.06,0-.12,0-.16.03h-.03c-.47.06-.87.31-1.15.65-.34.4-.47.93-.4,1.46.81,5.28,3.26,9.73,7.02,12.81,3.26,2.64,7.34,4.13,11.84,4.29v4.97c-.06-.09-.12-.16-.19-.25-.09-.12-.22-.28-.31-.4-.06-.09-.16-.19-.22-.25-.12-.12-.25-.28-.34-.4-.06-.09-.12-.16-.22-.25-.16-.16-.28-.31-.44-.44l-.16-.16c-.4-.4-.84-.78-1.27-1.15-3.45-2.83-7.83-4.32-12.71-4.32-.4,0-.84,0-1.24.03-.53.03-1.03.28-1.34.68s-.47.93-.4,1.46c.84,5.31,3.26,9.73,7.02,12.81.44.34.87.68,1.34.99,2.98,2.02,6.59,3.14,10.47,3.29v10.35c0,.15.02.3.06.44H1.42c-.78,0-1.42.64-1.42,1.42s.64,1.42,1.42,1.42h88.38c.78,0,1.42-.64,1.42-1.42s-.64-1.42-1.42-1.42Zm-36.61-22.92c2.52-2.05,5.66-3.23,9.2-3.45-.9,3.42-2.7,6.28-5.22,8.33-2.52,2.05-5.69,3.23-9.23,3.45.93-3.42,2.7-6.28,5.25-8.33Zm-5.13-8.7c.71-2.42,1.86-4.57,3.45-6.31.53-.59,1.09-1.12,1.68-1.62,2.52-2.05,5.69-3.23,9.2-3.45-.9,3.42-2.7,6.25-5.22,8.33-2.52,2.05-5.69,3.23-9.23,3.45.03-.16.06-.28.12-.4h0Zm5.13-24.34c2.52-2.05,5.66-3.23,9.2-3.45-.9,3.42-2.7,6.25-5.22,8.33-2.52,2.05-5.69,3.23-9.23,3.45.9-3.42,2.7-6.25,5.25-8.33Zm0-16.72h0c.78-.65,1.62-1.18,2.52-1.65,1.99-1.03,4.23-1.62,6.68-1.77-.9,3.42-2.7,6.28-5.22,8.33-2.05,1.65-4.54,2.77-7.27,3.23-.62.09-1.27.19-1.96.22.93-3.42,2.7-6.28,5.25-8.36Zm-13.05,7.86h0c-2.24-.56-4.29-1.55-6-2.95-.09-.06-.16-.12-.25-.19-2.39-2.05-4.1-4.82-5-8.14.44.03.87.06,1.31.12,3.01.4,5.72,1.52,7.89,3.33,2.52,2.05,4.32,4.91,5.22,8.33-1.09-.09-2.14-.25-3.17-.5Zm-6,13.77c-2.52-2.08-4.32-4.91-5.22-8.33,3.51.19,6.68,1.37,9.2,3.42,2.52,2.05,4.32,4.91,5.22,8.33-3.51-.22-6.68-1.4-9.2-3.42Zm0,16.35c-2.52-2.08-4.32-4.91-5.22-8.33,1.99.12,3.85.56,5.56,1.27,1.31.56,2.52,1.27,3.64,2.18h0c2.52,2.05,4.32,4.91,5.22,8.33-3.54-.22-6.65-1.37-9.2-3.45Zm1.86,17.97h0c-.65-.37-1.27-.81-1.9-1.31-.4-.31-.78-.65-1.12-1.03-1.65-1.65-2.89-3.7-3.73-6.06-.16-.4-.28-.84-.37-1.24,3.54.22,6.68,1.4,9.2,3.45.47.37.93.81,1.34,1.24,1.83,1.9,3.14,4.32,3.89,7.09-2.7-.16-5.16-.87-7.3-2.14Zm6.5-73.29c.03-3.23,1.18-6.4,3.29-9.26,2.02,2.92,3.05,6.12,3.01,9.36-.03,2.67-.81,5.28-2.27,7.71-.31.53-.65,1.06-1.03,1.55-2.02-2.89-3.05-6.09-3.01-9.36Z"/><path class="cls-1" d="m67.43,110.35H23.79c-.78,0-1.42.64-1.42,1.42s.64,1.42,1.42,1.42h43.63c.78,0,1.42-.64,1.42-1.42s-.64-1.42-1.42-1.42Z"/></svg>