<?xml version="1.0" encoding="UTF-8"?><svg id="Camada_1" xmlns="http://www.w3.org/2000/svg" viewBox="0 0 100.68 101.12"><defs><style>.cls-1{fill:#B17DCB;}</style></defs><path class="cls-1" d="m87.1,74.02c-2.75,0-5.43.84-7.69,2.41l-9.59-8.49c4.23-4.8,6.56-10.98,6.56-17.38s-2.33-12.58-6.56-17.38l9.59-8.49h0c3.78,2.62,8.63,3.15,12.88,1.4,4.25-1.75,7.33-5.53,8.17-10.05s-.67-9.16-4-12.32c-3.34-3.16-8.05-4.42-12.52-3.33-4.47,1.08-8.08,4.36-9.6,8.7-1.52,4.34-.73,9.15,2.09,12.78l-9.51,8.42s-.02.02-.03.03c-4.67-3.91-10.56-6.07-16.65-6.12-6.09-.05-12.01,2.01-16.75,5.84l-9.23-8.17h0c2.81-3.62,3.6-8.43,2.08-12.76-1.51-4.33-5.12-7.6-9.58-8.68-4.46-1.08-9.16.17-12.49,3.33C.93,6.9-.57,11.54.27,16.05c.84,4.51,3.91,8.29,8.15,10.04,4.24,1.75,9.08,1.22,12.86-1.39l9.22,8.17h0c-4.4,4.84-6.85,11.16-6.85,17.7s2.44,12.86,6.85,17.7l-9.22,8.17c-3.78-2.62-8.63-3.15-12.88-1.4-4.25,1.75-7.33,5.53-8.17,10.05-.84,4.52.67,9.16,4,12.32,3.34,3.16,8.05,4.42,12.52,3.33,4.47-1.08,8.08-4.36,9.6-8.7,1.52-4.34.73-9.15-2.09-12.78l9.23-8.17c4.74,3.83,10.66,5.89,16.75,5.84,6.09-.05,11.98-2.21,16.65-6.12.01.01.02.02.03.03l9.51,8.42c-2.51,3.24-3.42,7.45-2.46,11.44.96,3.99,3.68,7.33,7.39,9.07,3.71,1.75,8.02,1.71,11.7-.1,3.68-1.81,6.35-5.19,7.24-9.19.89-4-.08-8.2-2.65-11.4s-6.45-5.06-10.55-5.06h0Zm0-69.87c2.5,0,4.9.99,6.67,2.76,1.77,1.77,2.76,4.17,2.76,6.67s-.99,4.9-2.76,6.67c-1.77,1.77-4.17,2.76-6.67,2.76-2.5,0-4.9-.99-6.67-2.76-1.77-1.77-2.76-4.17-2.76-6.67,0-2.5,1-4.9,2.77-6.67s4.17-2.76,6.67-2.77h0ZM4.15,13.58c0-2.5.99-4.9,2.76-6.67,1.77-1.77,4.17-2.76,6.67-2.76s4.9.99,6.67,2.76c1.77,1.77,2.76,4.17,2.76,6.67s-.99,4.9-2.76,6.67c-1.77,1.77-4.17,2.76-6.67,2.76-2.5,0-4.9-1-6.67-2.77-1.77-1.77-2.76-4.17-2.77-6.67h0Zm45.86,14.71c5.77,0,11.31,2.23,15.46,6.24,4.15,4,6.59,9.46,6.8,15.23.21,5.76-1.83,11.38-5.69,15.68-.76-5.27-4.34-9.53-8.99-10.87,1.81-1.97,2.79-4.58,2.71-7.26s-1.19-5.23-3.11-7.1c-1.92-1.87-4.5-2.92-7.18-2.92s-5.26,1.05-7.18,2.92c-1.92,1.87-3.04,4.42-3.12,7.1-.07,2.68.9,5.28,2.71,7.26-4.65,1.34-8.23,5.6-8.99,10.87-3.86-4.29-5.89-9.91-5.69-15.68.21-5.76,2.64-11.22,6.79-15.23,4.15-4,9.7-6.24,15.46-6.24h0Zm0,25.51c-1.65,0-3.23-.65-4.39-1.82-1.16-1.16-1.82-2.74-1.82-4.39s.65-3.23,1.82-4.39c1.16-1.17,2.74-1.82,4.39-1.82s3.23.65,4.39,1.82c1.16,1.16,1.82,2.74,1.82,4.39,0,1.65-.66,3.22-1.82,4.39s-2.74,1.82-4.39,1.82h0ZM13.59,96.98c-2.5,0-4.9-.99-6.67-2.76-1.77-1.77-2.76-4.17-2.76-6.67s.99-4.9,2.76-6.67c1.77-1.77,4.17-2.76,6.67-2.76s4.9.99,6.67,2.76c1.77,1.77,2.76,4.17,2.76,6.67,0,2.5-1,4.9-2.77,6.67s-4.17,2.76-6.67,2.77h0Zm23.46-28.32c.22-.33.34-.73.34-1.13,0-5.14,3.67-9.33,8.17-9.33h8.92c4.51,0,8.17,4.18,8.17,9.33h0c0,.4.12.79.34,1.13-3.78,2.72-8.32,4.18-12.97,4.18s-9.19-1.46-12.97-4.18h0Zm50.06,28.32c-2.5,0-4.9-.99-6.67-2.76-1.77-1.77-2.76-4.17-2.76-6.67s.99-4.9,2.76-6.67c1.77-1.77,4.17-2.76,6.67-2.76s4.9.99,6.67,2.76c1.77,1.77,2.76,4.17,2.76,6.67,0,2.5-1,4.9-2.77,6.67-1.77,1.77-4.17,2.76-6.67,2.77h0Z"/></svg>