<?xml version="1.0" encoding="UTF-8"?><svg id="Camada_1" xmlns="http://www.w3.org/2000/svg" viewBox="0 0 91.66 102.07"><defs><style>.cls-1{fill:#B17DCB;}</style></defs><path class="cls-1" d="m90.03,25.52c-3.79-6.56-13.48-8.62-25.71-6.51C60.03,7.36,53.4,0,45.83,0s-14.2,7.36-18.49,19.01c-12.23-2.11-21.92-.05-25.71,6.51-3.31,5.73-1.56,13.76,4.93,22.61.71.97,1.48,1.94,2.29,2.91-.81.97-1.58,1.94-2.29,2.91C.08,62.79-1.67,70.82,1.63,76.55c2.84,4.92,9,7.32,17.06,7.32,2.69,0,5.59-.27,8.65-.79,4.29,11.64,10.91,18.99,18.48,18.99s14.19-7.36,18.48-18.99c3.06.53,5.96.8,8.65.8,8.06,0,14.22-2.4,17.06-7.32,3.31-5.73,1.56-13.76-4.93-22.61-.71-.97-1.48-1.94-2.29-2.91.81-.97,1.58-1.94,2.29-2.91,6.48-8.85,8.23-16.88,4.93-22.61h0ZM45.83,4.08c5.65,0,10.82,6.17,14.42,15.76-4.58,1.08-9.43,2.71-14.42,4.85-4.99-2.14-9.84-3.77-14.42-4.85,3.6-9.59,8.77-15.76,14.42-15.76Zm19.52,46.95c0,3.76-.22,7.42-.58,10.95-2.89,2.08-5.95,4.09-9.18,5.95-3.25,1.88-6.52,3.52-9.76,4.96-3.24-1.45-6.51-3.08-9.76-4.96-3.23-1.87-6.29-3.87-9.18-5.95-.37-3.53-.58-7.19-.58-10.95s.22-7.42.58-10.95c2.89-2.08,5.94-4.09,9.18-5.95,3.26-1.88,6.53-3.52,9.78-4.97,3.23,1.44,6.5,3.1,9.74,4.97,3.23,1.87,6.29,3.87,9.18,5.95.37,3.53.58,7.19.58,10.95h0Zm3.8-7.59c3.03,2.46,5.79,5,8.2,7.59-2.41,2.59-5.17,5.13-8.2,7.59.16-2.48.28-5,.28-7.59,0-2.59-.11-5.11-.28-7.59Zm-5.11,24.01c-.63,3.88-1.46,7.52-2.47,10.85-3.39-.79-6.96-1.89-10.64-3.29,2.22-1.09,4.45-2.25,6.69-3.54,2.22-1.28,4.34-2.64,6.41-4.02h0Zm-23.33,7.57c-3.67,1.4-7.24,2.5-10.64,3.29-1.01-3.33-1.84-6.98-2.47-10.86,2.07,1.39,4.2,2.74,6.41,4.02,2.24,1.29,4.47,2.45,6.69,3.54h0Zm-18.21-16.39c-3.03-2.46-5.79-5-8.2-7.59,2.41-2.59,5.17-5.13,8.2-7.59-.16,2.48-.28,5-.28,7.59s.11,5.11.28,7.59Zm5.11-24.01c.63-3.88,1.46-7.52,2.47-10.85,3.4.79,6.97,1.87,10.66,3.28-2.23,1.1-4.47,2.26-6.71,3.55-2.22,1.28-4.34,2.64-6.41,4.02h0Zm30.02-4.02c-2.24-1.29-4.47-2.45-6.69-3.54,3.67-1.4,7.24-2.5,10.64-3.29,1.01,3.33,1.84,6.98,2.47,10.86-2.07-1.39-4.2-2.74-6.41-4.02Zm-47.78,15.12c-5.39-7.35-7.1-13.97-4.68-18.15,2.07-3.59,6.88-5.31,13.29-5.31,2.33,0,4.88.25,7.57.7-1.35,4.51-2.37,9.53-3.01,14.92-4.28,3.2-8.13,6.59-11.41,10.07-.6-.74-1.21-1.48-1.75-2.23h0Zm-4.68,28.8c-2.42-4.18-.71-10.8,4.68-18.15.54-.74,1.15-1.48,1.75-2.23,3.28,3.48,7.14,6.87,11.41,10.07.64,5.39,1.66,10.41,3.01,14.91-10.11,1.67-18.03.29-20.86-4.61h0Zm40.66,23.47c-5.65,0-10.82-6.17-14.42-15.76,4.58-1.08,9.43-2.71,14.42-4.85,4.99,2.14,9.85,3.77,14.42,4.85-3.6,9.59-8.77,15.76-14.42,15.76Zm35.98-41.63c5.39,7.35,7.1,13.97,4.68,18.15-2.83,4.89-10.75,6.28-20.86,4.61,1.35-4.5,2.37-9.53,3.01-14.91,4.28-3.2,8.13-6.59,11.41-10.07.6.74,1.21,1.48,1.75,2.22h0Zm-13.17-18.49c-.64-5.39-1.66-10.41-3.01-14.92,10.11-1.68,18.03-.29,20.86,4.61,2.42,4.18.71,10.8-4.68,18.15-.54.74-1.15,1.48-1.75,2.23-3.28-3.48-7.14-6.87-11.41-10.07h0Z"/><path class="cls-1" d="m45.83,38.78c-6.75,0-12.25,5.49-12.25,12.25s5.49,12.25,12.25,12.25,12.25-5.49,12.25-12.25-5.49-12.25-12.25-12.25h0Zm0,20.41c-4.5,0-8.17-3.66-8.17-8.17s3.66-8.17,8.17-8.17,8.17,3.66,8.17,8.17-3.66,8.17-8.17,8.17Z"/></svg>