<?xml version="1.0" encoding="UTF-8"?><svg id="Camada_1" xmlns="http://www.w3.org/2000/svg" viewBox="0 0 100.73 87.12"><defs><style>.cls-1{fill:#B17DCB;}</style></defs><path class="cls-1" d="m26.58,48.75c1.55,0,3.25-.85,4.26-2.07l2.8,9.35c.62,2.05,2.15,2.31,2.6,2.34.46.03,2.01-.03,2.88-1.99l6.14-13.9,7.24,24.14c.62,2.05,2.15,2.31,2.6,2.33.04,0,.09,0,.15,0,.58,0,1.93-.21,2.73-1.98l8.09-17.97c.07-.1.28-.23.4-.26h9.79c1.26,0,2.29-1.02,2.29-2.29s-1.02-2.29-2.29-2.29h-9.81c-1.87,0-3.78,1.23-4.54,2.93l-6.29,13.99-7.26-24.2c-.61-2.05-2.15-2.31-2.61-2.33-.46-.03-2.01.03-2.88,1.99l-6.14,13.9-2.36-7.87c-.39-1.32-1.33-2.2-2.5-2.35-1.14-.15-2.23.4-2.96,1.48l-1.54,1.95-.07.11c-.12.16-.54.39-.73.41H1.9v.04c-1.08.18-1.9,1.12-1.9,2.25s.82,2.07,1.9,2.25v.03h24.68Z"/><path class="cls-1" d="m92.87,7.85c-5.06-5.06-11.79-7.85-18.95-7.85s-13.89,2.79-18.95,7.85l-3.46,3.47-3.47-3.47C42.98,2.79,36.25,0,29.09,0S15.2,2.79,10.14,7.85c-5.06,5.06-7.85,11.79-7.85,18.95,0,5,1.36,9.79,3.91,13.95h5.59c-3.19-3.94-4.92-8.81-4.92-13.95,0-5.94,2.31-11.52,6.51-15.72,4.2-4.2,9.78-6.51,15.72-6.51s11.52,2.31,15.72,6.51l6.7,6.7,6.69-6.7c4.2-4.2,9.78-6.51,15.72-6.51s11.52,2.31,15.72,6.51c4.2,4.2,6.51,9.78,6.51,15.72s-2.31,11.52-6.51,15.72l-38.13,38.14-28.48-28.48h-6.47l34.94,34.94,41.37-41.37c5.06-5.06,7.85-11.79,7.85-18.95s-2.79-13.89-7.85-18.95h0Z"/></svg>