<?xml version="1.0" encoding="UTF-8"?><svg id="Camada_1" xmlns="http://www.w3.org/2000/svg" viewBox="0 0 92.68 92.68"><defs><style>.cls-1{fill:#B17DCB;}</style></defs><path class="cls-1" d="m46.34,0C20.77,0,0,20.78,0,46.35c0,9.15,2.67,17.67,7.26,24.86.39.61.78,1.2,1.2,1.79.22.32.45.64.68.96.06.07.11.15.17.22.24.32.48.65.73.97h0c.17.23.36.44.54.66.01.01.02.03.03.04.46.56.94,1.11,1.43,1.65,0,0,0,.01.01.01.34.38.69.76,1.04,1.13,1.08,1.11,2.21,2.16,3.39,3.16,1.18,1,2.41,1.93,3.69,2.8,1.27.87,2.59,1.68,3.95,2.42.7.38,1.41.75,2.13,1.09,0,0,0,0,0,0,.67.32,1.35.63,2.03.92,2.82,1.19,5.77,2.11,8.84,2.73,0,0,0,0,0,0,.06.01.13.02.19.03.68.13,1.36.26,2.04.36.39.06.79.1,1.19.15.36.05.72.1,1.09.14.02,0,.04.01.07.01.64.06,1.29.11,1.93.14.1.01.21.02.31.02h.01c.77.04,1.55.06,2.33.06h.05c1.01,0,2.01-.05,3-.11.09,0,.18,0,.27-.01h.08c.13-.01.26-.03.38-.05,1.35-.11,2.68-.27,4-.5.03,0,.07-.01.1-.01h.04c.21-.04.41-.08.62-.12.45-.08.9-.17,1.35-.27.28-.06.56-.13.85-.19.45-.11.9-.22,1.35-.34.12-.03.24-.06.36-.09.2-.05.4-.12.6-.18.42-.12.84-.25,1.26-.38.3-.1.61-.2.91-.31.42-.15.84-.3,1.26-.45.12-.05.25-.09.37-.13.18-.07.35-.15.53-.22.4-.16.79-.32,1.18-.5.35-.15.7-.32,1.05-.48.29-.14.58-.27.87-.41.2-.1.39-.18.59-.28.26-.13.5-.27.76-.41.18-.1.37-.2.55-.3.51-.28,1.01-.57,1.51-.87.12-.07.24-.14.36-.22.28-.17.57-.33.85-.51h0c.28-.18.55-.38.83-.56,0-.01.02-.01.03-.02.01-.01.02-.02.03-.02.6-.41,1.2-.83,1.78-1.27.36-.27.73-.54,1.09-.82,1.21-.96,2.37-1.98,3.48-3.06h0c1.11-1.08,2.16-2.21,3.16-3.39,1-1.18,1.93-2.41,2.8-3.69l.06-.08c.04-.06.08-.13.12-.19,5-7.4,7.92-16.31,7.92-25.9C92.68,20.77,71.91,0,46.34,0h0Zm0,4.7c23.03,0,41.65,18.62,41.65,41.65,0,7.33-1.89,14.21-5.21,20.19-2.45-2.68-5.31-4.77-8.43-6.16,4.61-3.01,7.68-8.22,7.68-14.13,0-9.26-7.52-16.83-16.74-16.83s-16.74,7.57-16.74,16.83c0,5.9,3.06,11.11,7.66,14.12-3.76,1.68-7.15,4.39-9.87,7.9-2.7-3.47-6.06-6.22-9.85-7.91,4.59-3.01,7.64-8.21,7.64-14.1,0-9.26-7.52-16.83-16.74-16.83s-16.74,7.57-16.74,16.83c0,5.91,3.06,11.12,7.67,14.12-3.11,1.39-5.98,3.48-8.42,6.16-3.31-5.98-5.2-12.85-5.2-20.18C4.69,23.32,23.31,4.7,46.34,4.7h0Zm-18.96,29.4c6.68,0,12.05,5.4,12.05,12.14s-5.38,12.14-12.05,12.14-12.05-5.4-12.05-12.14,5.37-12.14,12.05-12.14Zm37.91,0c6.68,0,12.05,5.4,12.05,12.14s-5.38,12.14-12.05,12.14-12.05-5.4-12.05-12.14,5.38-12.14,12.05-12.14Zm-37.91,28.98c7.29,0,13.96,4.64,17.79,11.99.3.57.57,1.15.83,1.75.07.15.14.31.2.46.25.61.48,1.23.69,1.86.06.17.12.33.17.5.2.64.37,1.28.53,1.94.04.16.09.32.13.48.19.82.34,1.64.46,2.48.16,1.12.2,2.25.24,3.38-.69.04-1.39.07-2.09.07-.53,0-1.06-.02-1.59-.04-.16-.01-.33,0-.49-.01h-.01c-.69-.03-1.38-.09-2.06-.16-1.38-.14-2.75-.35-4.12-.62-1.36-.28-2.71-.62-4.04-1.03-1.33-.41-2.63-.89-3.91-1.43-1.28-.54-2.53-1.15-3.75-1.81-1.22-.67-2.4-1.39-3.55-2.17-1.15-.78-2.25-1.63-3.31-2.52-1.06-.89-2.08-1.84-3.04-2.84-.96-.99-1.88-2.03-2.74-3.12h0s0,0,0,0h0s0,0,0-.01c-.39-.49-.73-1.02-1.09-1.53,3.98-4.86,9.25-7.62,14.76-7.63h0Zm37.91,0c5.52.01,10.79,2.78,14.77,7.64-.6.84-1.21,1.67-1.87,2.46-.89,1.06-1.84,2.08-2.84,3.04-1,.97-2.04,1.89-3.13,2.75-1.09.86-2.22,1.67-3.38,2.42-1.17.75-2.37,1.44-3.61,2.07-1.24.63-2.51,1.2-3.8,1.7-1.28.5-2.58.93-3.9,1.3-.02,0-.03.01-.05.01,0,0-.02,0-.03.01-.6.17-1.21.32-1.83.46-.08.02-.17.04-.25.06-.53.12-1.06.22-1.59.32-.15.03-.31.06-.46.08-.06.01-.13.01-.19.02-.02-.41-.03-.82-.06-1.23,0-.07,0-.14,0-.21-.06-.7-.14-1.4-.24-2.1-.12-.82-.27-1.63-.44-2.43-.03-.12-.05-.23-.07-.35-.01-.05-.02-.11-.03-.17-.17-.72-.36-1.43-.57-2.13-.03-.1-.06-.2-.09-.3-.05-.15-.08-.3-.13-.44-.2-.62-.42-1.22-.65-1.82-.02-.06-.05-.13-.08-.19-.1-.25-.19-.51-.3-.76h0c-.38-.9-.8-1.79-1.26-2.64v-.02s-.02-.02-.02-.02c0-.02-.02-.03-.03-.05,4.05-5.99,9.93-9.45,16.14-9.47h0Z"/></svg>