<?xml version="1.0" encoding="UTF-8"?><svg id="Camada_1" xmlns="http://www.w3.org/2000/svg" viewBox="0 0 98.24 98.24"><defs><style>.cls-1{fill:#B17DCB;}</style></defs><path class="cls-1" d="m98.24,69.34c-.07-1.07-.75-1.74-1.54-2.07l-4.74-1.37c-.27-.78-.58-1.54-.93-2.27l2.4-4.27c.46-.81.3-1.92-.37-2.57l-4.64-4.64c-.65-.64-1.74-.78-2.54-.33l-4.34,2.4c-.73-.36-1.46-.7-2.24-.97l-1.37-4.74c-.26-.87-1.12-1.53-2.04-1.54h-6.57c-.92-.01-1.81.65-2.07,1.54l-1.33,4.74c-.77.27-1.51.61-2.24.97l-4.34-2.4c-.8-.45-1.88-.3-2.54.33l-4.64,4.64c-.66.65-.82,1.76-.37,2.57l2.4,4.27c-.36.74-.69,1.51-.97,2.3l-4.71,1.33c-.9.25-1.57,1.14-1.57,2.07v6.54c0,.93.67,1.82,1.57,2.07l4.71,1.33c.27.79.6,1.56.97,2.3l-2.4,4.27c-.46.81-.3,1.92.37,2.57l4.64,4.64c.65.64,1.74.78,2.54.33l4.34-2.4c.73.36,1.46.7,2.24.97l1.33,4.74c.26.88,1.15,1.54,2.07,1.54h6.57c.91-.01,1.78-.66,2.04-1.54l1.37-4.74c.77-.27,1.51-.61,2.24-.97l4.34,2.4c.8.45,1.88.3,2.54-.33l4.64-4.64c.66-.65.82-1.76.37-2.57l-2.4-4.27c.36-.73.66-1.49.93-2.27l4.74-1.37c.88-.26,1.54-1.15,1.54-2.07v-6.54Zm-4.27,1.6v3.34l-4.14,1.2c-.69.2-1.27.77-1.47,1.47-.36,1.3-.87,2.54-1.54,3.7-.37.63-.38,1.46-.03,2.1l2.1,3.77-2.34,2.37-3.8-2.1c-.63-.35-1.44-.35-2.07,0-1.16.66-2.4,1.21-3.7,1.57-.71.19-1.3.77-1.5,1.47l-1.2,4.14h-3.34l-1.17-4.14c-.2-.7-.79-1.28-1.5-1.47-1.3-.36-2.54-.91-3.7-1.57-.64-.36-1.46-.36-2.1,0l-3.77,2.1-2.34-2.34,2.1-3.8c.35-.64.34-1.47-.03-2.1-.66-1.16-1.18-2.4-1.54-3.7-.2-.69-.77-1.27-1.47-1.47l-4.17-1.2v-3.34l4.17-1.2c.69-.2,1.27-.77,1.47-1.47.36-1.3.87-2.54,1.54-3.7.37-.63.38-1.46.03-2.1l-2.1-3.8,2.34-2.34,3.77,2.1c.64.36,1.46.36,2.1,0,1.16-.66,2.4-1.21,3.7-1.57.71-.19,1.3-.77,1.5-1.47l1.17-4.14h3.34l1.2,4.14c.2.7.79,1.28,1.5,1.47,1.3.36,2.54.91,3.7,1.57.63.35,1.44.35,2.07,0l3.8-2.1,2.34,2.37-2.1,3.77c-.35.64-.34,1.47.03,2.1.66,1.16,1.18,2.4,1.54,3.7.2.69.77,1.27,1.47,1.47l4.14,1.2Zm-11.75,1.67c0-5.28-4.33-9.61-9.61-9.61s-9.61,4.33-9.61,9.61,4.33,9.61,9.61,9.61,9.61-4.33,9.61-9.61Zm-4.27,0c0,2.97-2.36,5.34-5.34,5.34s-5.34-2.36-5.34-5.34,2.36-5.34,5.34-5.34,5.34,2.36,5.34,5.34Zm-18.15-46.59c-.07-1.07-.74-1.7-1.54-2.07l-5.77-1.64c-.35-1.04-.78-2.04-1.27-3l2.94-5.27c.46-.81.3-1.92-.37-2.57l-5.47-5.47c-.65-.64-1.74-.78-2.54-.33l-5.24,2.9c-.97-.49-1.99-.91-3.04-1.27l-1.67-5.77C35.58.66,34.72,0,33.81,0h-7.78c-.92-.01-1.81.65-2.07,1.54l-1.64,5.77c-1.05.36-2.06.78-3.04,1.27l-5.24-2.9c-.8-.45-1.88-.3-2.54.33l-5.47,5.47c-.66.65-.82,1.76-.37,2.57l2.9,5.24c-.49.98-.88,1.99-1.24,3.04l-5.77,1.64C.67,24.21,0,25.1,0,26.03v7.74c0,.93.67,1.82,1.57,2.07l5.77,1.64c.35,1.05.75,2.06,1.24,3.04l-2.9,5.24c-.46.81-.3,1.92.37,2.57l5.47,5.47c.65.64,1.74.78,2.54.33l5.24-2.9c.98.49,1.99.91,3.04,1.27l1.64,5.77c.26.88,1.15,1.54,2.07,1.54h7.78c.91-.01,1.78-.66,2.04-1.54l1.67-5.77c1.05-.35,2.07-.78,3.04-1.27l5.24,2.9c.8.45,1.88.3,2.54-.33l5.47-5.47c.66-.65.82-1.76.37-2.57l-2.94-5.27c.48-.97.92-1.96,1.27-3l5.77-1.64c.88-.26,1.54-1.15,1.54-2.07v-7.74Zm-4.27,1.6v4.54l-5.17,1.47c-.7.2-1.28.79-1.47,1.5-.43,1.57-1.07,3.07-1.87,4.47-.36.64-.36,1.46,0,2.1l2.64,4.71-3.2,3.2-4.74-2.64c-.64-.35-1.47-.34-2.1.03-1.4.8-2.9,1.4-4.47,1.84-.7.2-1.28.79-1.47,1.5l-1.5,5.17h-4.51l-1.5-5.17c-.19-.72-.79-1.31-1.5-1.5-1.57-.43-3.04-1.04-4.44-1.84-.63-.37-1.46-.38-2.1-.03l-4.74,2.64-3.2-3.2,2.64-4.71c.36-.64.36-1.46,0-2.1-.8-1.4-1.44-2.9-1.87-4.47-.19-.71-.77-1.3-1.47-1.5l-5.21-1.47v-4.54l5.21-1.47c.7-.2,1.28-.79,1.47-1.5.43-1.57,1.07-3.07,1.87-4.47.36-.64.36-1.46,0-2.1l-2.64-4.71,3.2-3.2,4.74,2.64c.64.35,1.47.34,2.1-.03,1.4-.8,2.86-1.4,4.44-1.84.72-.19,1.31-.79,1.5-1.5l1.5-5.17h4.51l1.5,5.17c.19.71.77,1.3,1.47,1.5,1.57.43,3.07,1.04,4.47,1.84.63.37,1.46.38,2.1.03l4.74-2.64,3.2,3.2-2.64,4.71c-.36.64-.36,1.46,0,2.1.8,1.4,1.44,2.9,1.87,4.47.19.71.77,1.3,1.47,1.5l5.17,1.47Zm-13.88,2.27c0-6.46-5.28-11.75-11.75-11.75s-11.75,5.28-11.75,11.75,5.28,11.75,11.75,11.75,11.75-5.28,11.75-11.75Zm-4.27,0c0,4.15-3.32,7.47-7.47,7.47s-7.47-3.32-7.47-7.47,3.32-7.47,7.47-7.47,7.47,3.32,7.47,7.47Z"/></svg>