<?xml version="1.0" encoding="UTF-8"?><svg id="Camada_1" xmlns="http://www.w3.org/2000/svg" viewBox="0 0 91.34 103"><defs><style>.cls-1{fill:#B17DCB;}</style></defs><g><path class="cls-1" d="m40.72,76.01l-11.42-30.18-.14-.21s0-.1-.07-.14l-.11-.14-.08-.12-.13-.1s-.08-.08-.13-.11l-.14-.08-.17-.08h-1.26l-.17.08-.14.08-.13.1-.13.11-.11.13h0s-.08.09-.11.14l-.08.13h0c-.03.06-.06.11-.08.17l-11.56,30.22c-.35.94.12,1.98,1.06,2.34.94.35,1.98-.12,2.34-1.06l2.73-7.22h14l2.69,7.22c.27.69.93,1.15,1.68,1.15.22,0,.43-.04.63-.12.45-.16.81-.5,1.02-.93.2-.43.22-.93.06-1.38h0Zm-18.71-9.51l5.62-14.98,5.62,14.98h-11.24Z"/><path class="cls-1" d="m66.25,22.37L48.73.93c-.47-.57-1.16-.91-1.9-.92h-.81c-.74-.03-1.44.28-1.93.84l-18.95,21.58c-.48.54-1.16.85-1.88.85H3.09c-.67,0-1.3.26-1.77.73l-.59.59c-.47.47-.73,1.11-.73,1.77v73.52c0,.67.26,1.3.73,1.77l.59.59c.47.47,1.11.73,1.77.73h85.16c.67,0,1.3-.26,1.77-.73l.59-.59c.47-.47.73-1.11.73-1.77V26.38c0-.67-.26-1.3-.73-1.77l-.59-.59c-.47-.47-1.11-.73-1.77-.73h-20.06c-.75,0-1.47-.34-1.94-.92ZM46.34,4.51l15.35,18.78h-31.83L46.34,4.51Zm38.38,94.37H6.62c-1.38,0-2.51-1.12-2.51-2.51V29.91c0-1.38,1.12-2.51,2.51-2.51h78.11c1.38,0,2.51,1.12,2.51,2.51v66.48c0,1.38-1.12,2.51-2.51,2.51Z"/></g><path class="cls-1" d="m47.13,78.41c-.39-1.04-.77-2.05-1.16-3.08-.06-.17.03-.36.21-.42,5.17-1.52,9.8-4,13.94-7.49.14-.12.15-.32.03-.46-3.37-3.75-5.67-8.06-6.9-12.96-.04-.14-.16-.24-.31-.24h-6.74c-.18,0-.32-.14-.32-.32v-2.29c0-.18.14-.32.32-.32h13.99c.18,0,.32-.14.32-.32v-5.17c0-.18.14-.32.32-.32.1,0,.2,0,.3,0,.8,0,1.59,0,2.39,0,.14,0,.31-.03.43.02.16.06.3.14.45.23.15.09.21.29.12.44-.08.13-.16.26-.23.39-.07.12-.21.23-.21.34-.01,1.34-.01,2.69,0,4.06,0,.18.14.32.32.32h14.15c.18,0,.32.14.32.32v2.29c0,.18-.14.32-.32.32-.91,0-1.8,0-2.69,0-1.26,0-2.52,0-3.78,0-.23,0-.37.02-.42.3-.87,4.87-3.06,9.11-6.16,12.91,0,0,0,0,0,0-.11.13-.09.33.04.44,3.96,3.39,8.62,5.37,13.64,6.74.18.05.28.24.21.42-.39,1.03-.77,2.05-1.16,3.09-.06.15-.22.24-.38.2-5.54-1.48-10.3-4.34-14.66-8-.12-.1-.29-.1-.41,0-4.54,3.84-9.5,6.94-15.26,8.75-.16.05-.33-.04-.39-.19Zm15.94-13.94c2.49-3.09,4.45-6.39,5.32-10.29.04-.2-.11-.39-.31-.39h-11.11c-.2,0-.36.19-.31.39.93,4.05,3.23,7.26,5.93,10.3.13.15.36.14.48-.01Z"/></svg>